<?xml version="1.0" encoding="UTF-8"?>
<!DOCTYPE svg PUBLIC "-//W3C//DTD SVG 1.1//EN" "http://www.w3.org/Graphics/SVG/1.1/DTD/svg11.dtd">
<!-- Creator: CorelDRAW 2020 (64-Bit Deneme Sürümü) -->
<svg xmlns="http://www.w3.org/2000/svg" xml:space="preserve" width="210mm" height="297mm" version="1.1" style="shape-rendering:geometricPrecision; text-rendering:geometricPrecision; image-rendering:optimizeQuality; fill-rule:evenodd; clip-rule:evenodd"
viewBox="0 0 21000 29700"
 xmlns:xlink="http://www.w3.org/1999/xlink"
 xmlns:xodm="http://www.corel.com/coreldraw/odm/2003">
 <defs>
  <style type="text/css">
   <![CDATA[
    .fil7 {fill:#201F20}
    .fil10 {fill:#222222}
    .fil8 {fill:#252525}
    .fil4 {fill:#272728}
    .fil5 {fill:#292929}
    .fil14 {fill:#2C2C2C}
    .fil11 {fill:#2D2D2D}
    .fil13 {fill:#2E2E2E}
    .fil18 {fill:#313232}
    .fil19 {fill:#424242}
    .fil12 {fill:#434A52}
    .fil0 {fill:#434B53}
    .fil22 {fill:#8B8B8B}
    .fil23 {fill:#9A9A9A}
    .fil6 {fill:#EDBD5C}
    .fil9 {fill:#EEBE59}
    .fil2 {fill:#F0C56E}
    .fil16 {fill:#F1C571}
    .fil15 {fill:#F2C46B}
    .fil20 {fill:#F3CB7B}
    .fil21 {fill:#FDF6EA}
    .fil3 {fill:#FDFDFD}
    .fil1 {fill:#FEE497}
    .fil17 {fill:#FEFEFC}
   ]]>
  </style>
   <clipPath id="id0">
    <rect x="6697.56" y="10687.19" width="4334.94" height="4334.94"/>
   </clipPath>
 </defs>
 <g id="Katman_x0020_1">
  <metadata id="CorelCorpID_0Corel-Layer"/>
  <g style="clip-path:url(#id0)">
   <image id="İsimsiz-1_ImgID1.png" x="6697.56" y="10687.19" width="4334.94" height="4334.94" xlink:href="İsimsiz-2_Images\İsimsiz-2_ImgID1.png"/>
  </g>
  <g id="_1879502107344">
   <path class="fil0" d="M8027.77 12456.68c28.14,-7.15 37.16,-19.09 63.43,-37.79 28.32,-20.15 42.64,-19.88 56.21,-37.69 -18.02,-82.76 43.79,-246.74 81.19,-324.12 134.32,-277.94 447,-470.05 772.06,-464.05 431.37,7.95 827.06,368.79 830.24,810.45l106.84 50.84c25.62,-524.44 -431.16,-965.8 -945.65,-968.97 -276.28,-1.71 -484.77,97.3 -680.57,282.34 -195.16,184.43 -273.79,425.05 -283.75,688.99z"/>
   <path class="fil1" d="M8490.17 11917.69c47.07,37.31 162.62,109.76 142.59,179.34 -43.32,55.58 -86.78,16.34 -123.45,-21.32 -42.11,-43.25 -85.38,-59.56 -85.87,-117.53 -30.76,84.48 -50.69,76 -91.2,160.77 -36.54,76.48 -42.7,109.58 -65.11,188.91 25.31,11.68 7.29,-3.14 30.25,14.42 55.76,-39.23 231.68,-68.03 311.68,-86.38 95.82,-21.97 239.87,-51.82 325.69,-83.92 0.08,-76.42 -9.63,-381.67 7.13,-431.76 -95.8,11.39 -170.75,22.75 -258.43,63.76 -61.7,28.86 -158.7,79.33 -193.28,133.71z"/>
   <path class="fil1" d="M9043.08 12127.82c71.31,-0.97 54.08,12.76 73.94,68.32l21.48 32.36 547.5 32.67c-25.98,-56.27 -38.35,-115.49 -72.39,-172.09 -33.06,-54.98 -78.93,-103.59 -106.46,-149.59 -27.02,42.43 -53.3,60.64 -84.6,101.05 -31.93,41.24 -63.48,69.76 -113.6,32.29 -25.35,-62.58 2.87,-73.96 41.74,-112.38 34.87,-34.47 37.61,-52.01 83.75,-86.1 -58.7,-28.25 -104.64,-69.35 -175.72,-99.18 -81.01,-34 -138.38,-37.83 -221.89,-55 17.76,85.87 6.36,307.55 6.25,407.65z"/>
   <path class="fil2" d="M9944.25 13096.15c20.96,-41.95 10.82,-42.95 46.46,-35.75 -8.68,19.98 -21.5,33.83 -46.46,35.75zm63.63 -61.66l51.91 21.37c-22.05,29.75 -51.92,64.84 -83.56,69.55 22.42,-28.46 18.94,-20.46 41.01,-42 23.36,-22.79 11.02,-35.16 -9.36,-48.92zm-529.24 1.09l391.85 179.21c-80.67,28.12 -139.07,-27.19 -213.53,-59.5 -70.68,-30.67 -146.22,-51.01 -178.32,-119.71zm101.65 -203.38l384.54 178.51c-59.56,72.38 -8.22,43.19 -105.96,101.26 -68.71,40.83 -96.56,17.79 -157.77,-9.47 -57.12,-25.43 -94.54,-28.88 -123.58,-87.86 -22.95,-46.64 -28.95,-140.39 2.77,-182.44zm-33.65 197.13c-46.12,-16.1 -75.99,-49.62 -120.14,-29.53 -0.9,25.52 46.73,104.24 72.8,118.09l264.84 124.71c47.54,21.24 112.33,21.55 157.79,0.39 8.65,-54.56 -46.12,-52.85 -89.56,-81.05 37.51,-21.17 90.49,18.11 161.58,-7.34 21.78,-7.8 93.51,-56.49 90.01,-115.78 -35.29,-28.89 -485.71,-243.53 -524.51,-241.8 -14.34,33.07 -30.2,63.38 -33.55,108.95 -4.77,64.99 16.06,79.55 20.74,123.36z"/>
   <path class="fil3" d="M9580.29 12832.2c-31.72,42.05 -25.72,135.8 -2.77,182.44 29.04,58.98 66.46,62.43 123.58,87.86 61.21,27.26 89.06,50.3 157.77,9.47 97.74,-58.07 46.4,-28.88 105.96,-101.26l-384.54 -178.51z"/>
   <path class="fil4" d="M7820.67 13358.56c343.52,25.33 1974.82,27.59 2308.96,0.04 -159.06,-21.63 -1871.27,-22.01 -2031.77,-9.47 -90.75,7.09 -192.34,-0.38 -277.19,9.43z"/>
   <path class="fil5" d="M8467.1 13929.76c157.1,1.15 1609.97,4.31 1714.19,-12.97 -454.69,-39.83 -1847.52,-19.16 -2277.38,-0.53l563.19 13.5z"/>
   <path class="fil6" d="M9423.04 12594.33l48.26 6.9 -20.55 33.77c2.91,16.27 -19.18,52.6 -29.51,73.3 -13,26.08 -22.81,65.91 -46.7,79.45 4.88,24.82 -7.59,34.38 -20.66,57.33l-76.61 173.74 -20.63 33.41 -64.99 -2.76 63.25 8.08 -97.7 216.87c32.77,3.98 33.3,-17.97 66.87,-94.91 55.24,-126.65 383.7,-834.96 403.06,-840.88 43.37,3.02 299.14,130.94 356.66,159.2 55,27.02 117.08,56.64 173.31,80.84 34.29,14.76 153.83,67.06 178.05,85.28 9,68.24 -244.24,503.71 -270.4,614.02 44.94,-10.82 62.78,-97.8 83.13,-140.02 41.96,-87.05 210.5,-407.56 207.47,-480.39 -53.16,-43.43 -337.25,-169.28 -417.61,-203.24l-106.84 -50.84c-56.1,-27.47 -168.11,-96.01 -224.95,-77.67 -32.32,29.63 -93.72,210.03 -133.19,265.54l-49.72 2.98z"/>
   <path class="fil0" d="M8941.88 11720.22c-16.76,50.09 -7.05,355.34 -7.13,431.76l108.33 -24.16c0.11,-100.1 11.51,-321.78 -6.25,-407.65 -38.91,-32.72 -54.63,-42.44 -94.95,0.05z"/>
   <path class="fil7" d="M8881.17 12834.7l-5.99 66.46 -2.29 87.2 -0.33 28.3c-5.38,55.86 -29.75,224.05 -7.53,262.39 26.53,-12.44 16.28,-5.95 18.23,-51.31 9.56,-221.68 36.16,-512.91 40.57,-720.05 1.08,-50.69 -1.45,-228.36 25.59,-254.59 30.34,-23.11 506.79,22.06 617.97,25.04 213.71,5.73 132.13,10.93 178.17,50.51 0.29,-0.37 25.63,-11.81 -0.16,-48.39 -16.11,-22.86 -33.92,-18.38 -59.4,-19.09l-547.5 -32.67c-51.8,-1.23 -171.57,-23.54 -209.42,4.4 -34.32,36.85 -45.01,517.39 -47.91,601.8z"/>
   <path class="fil8" d="M8330.04 14066.33c46.22,18.48 617.24,17.59 712.79,17.6l669.25 -9.99c34.66,-3.59 13.9,2.9 38.3,-10.11 -120.69,-26.37 -1304.05,-24.93 -1420.34,2.5z"/>
   <path class="fil9" d="M8934.75 12151.98c-85.82,32.1 -229.87,61.95 -325.69,83.92 -80,18.35 -255.92,47.15 -311.68,86.38 -16.19,41.47 19.69,139.89 30.77,188.65 14.63,64.37 31.21,126.86 46.78,190.5 17.38,71.03 90.01,335.74 88.67,388.25l8.15 28.4c11.1,28.66 16.69,51.49 23.77,80.75 19.01,78.56 3.83,65.49 30.84,80.28 6.84,-12.42 9.3,-3.92 -2.43,-48.52l-101.55 -416.13c-24.67,-95.14 -109.45,-404.5 -107.51,-484.56 43.36,-19.22 148.96,-41.77 200.74,-52.63 72.68,-15.24 139.94,-35.44 210.94,-52.13 71.42,-16.78 141.91,-32.77 211.53,-50.73 238.34,-61.48 99.54,0.97 178.94,21.73 -19.86,-55.56 -2.63,-69.29 -73.94,-68.32l-108.33 24.16z"/>
   <path class="fil10" d="M8147.41 12381.2c-13.57,17.81 -27.89,17.54 -56.21,37.69 -26.27,18.7 -35.29,30.64 -63.43,37.79 -33.95,3.96 -197.76,107.11 -242.07,131.44 -184.03,101.06 -140.01,54.09 81.16,460.53l104.57 183.03c21.77,39.87 12.6,47.94 54.7,45 -48.72,-102.34 -325.15,-537.59 -329.69,-599.82 4.95,-15.3 429.02,-252.66 508.05,-296.34 43.54,-24.08 48.59,-14.11 57.7,-59.05l-114.78 59.73z"/>
   <path class="fil11" d="M8471.75 13118.08l-8.15 -28.4 -36.62 21.86 -194.41 -337.34c-23.61,28.71 -32.79,69.33 -48.65,101.83 -21.08,43.22 -51.23,58.95 -27.71,98.25 28.36,-18.8 37.74,-81.2 57.31,-112.53 26.42,28.12 156.33,256.33 161.05,288.97 -36.45,32.94 -55.58,23.37 -61.23,76.92 45.09,-16.42 114.2,-77.58 158.41,-109.56z"/>
   <path class="fil12" d="M9507.15 11939.49c-4.08,-52.81 -19.75,-67.08 -72.71,-65.14 -46.14,34.09 -48.88,51.63 -83.75,86.1 -38.87,38.42 -67.09,49.8 -41.74,112.38 50.12,37.47 81.67,8.95 113.6,-32.29 31.3,-40.41 57.58,-58.62 84.6,-101.05z"/>
   <path class="fil12" d="M8423.44 11958.18c0.49,57.97 43.76,74.28 85.87,117.53 36.67,37.66 80.13,76.9 123.45,21.32 20.03,-69.58 -95.52,-142.03 -142.59,-179.34 -40.21,-0.54 -54.74,1.41 -66.73,40.49z"/>
   <path class="fil13" d="M8678.96 13640.89c9.62,36.42 15.14,22.64 17.04,68.45 6.22,149.92 -13.35,87.02 -30.25,118.01l68.39 -2.9c-18.61,-30.42 -27.86,27.97 -21.22,-109.9 31.77,27.71 45.46,96.56 86.93,113.22l76.03 -138.58c1.09,168.04 -3.25,101.08 -23.86,138.46l102.22 -3.25c-19.69,-33.13 -10.77,23.7 -29.86,-30.21l-0.01 -117.99c19.05,-54.01 10.17,2.99 29.91,-32.96l-79.2 1.05 -65.19 121.25c-0.62,-1.38 -2.93,2.99 -3.83,3.73l-76 -126.55 -51.1 -1.83z"/>
   <path class="fil13" d="M9474.55 13599.46c-19.24,54.44 -10.47,-3.94 -29.89,30.75l68.43 2.32c-19.49,-34.83 -25.28,24.77 -23.75,-112.76 34.26,27.72 47.98,96.58 87.82,112.44l71.83 -139.26c11.22,172.54 1.95,103.92 -18.03,136.72l102.21 3.23c-19.7,-36.28 -10.85,20.48 -29.86,-33.44l0.02 -118c18.97,-53.84 10.15,2.87 29.84,-30.21l-79.14 -3.93c-13.15,27.51 -46.36,110.92 -69.84,127.69l-73.63 -127.06 -52.7 0.15c22.35,68 16.69,76.13 16.69,151.36z"/>
   <path class="fil14" d="M9353.88 12845.08c13.07,-22.95 25.54,-32.51 20.66,-57.33l-113.19 -36.8 19.71 -115.17c52.88,-3.24 121.2,12.82 169.69,-0.78l20.55 -33.77 -48.26 -6.9c-78.25,0.59 -123.07,-25.27 -174.16,34.92 -27.51,32.41 -40.03,130.48 -43.14,174.5 83.17,10.12 72.03,1.56 148.14,41.33z"/>
   <path class="fil13" d="M8262.98 13657.84c91.17,-6.83 90.24,90.22 -2.11,79.94l2.11 -79.94zm-79.75 -11.55c34.9,29.98 14.21,-14.26 29.79,29.91l-0.01 117.99c-19.04,53.75 -10.75,-2.24 -29,30.68l100.22 -1.87c-14.14,-23.73 -34.12,7.05 -19.73,-68.07 80.89,10.03 2.69,102.53 134.66,71.37 -1.43,-1.37 -3.95,-2.68 -4.9,-3.38 -0.94,-0.69 -3.67,-2.55 -4.81,-3.42l-27.66 -29.71c-14.78,-22.48 -14.28,-22.3 -33.79,-42.01 123.32,-48.44 24.19,-140.25 -144.77,-101.49z"/>
   <path class="fil13" d="M10100.25 13737.78l-2.03 -79.69c92.07,-7.68 93.8,90.2 2.03,79.69zm-79.75 -91.48c34.87,29.93 14.18,-14.29 29.78,29.9l0 117.99c-19.01,53.77 -10.75,-2.23 -29,30.68l100.22 -1.87c-14.1,-23.66 -34.18,6.98 -19.72,-68.05 80.84,9.7 2.46,102.35 134.65,71.34 -1.43,-1.36 -3.95,-2.68 -4.9,-3.37l-18.37 -14.18c-18.75,-18.73 -11.91,-24.86 -47.92,-60.92 126.84,-50.24 18.49,-139.2 -144.74,-101.52z"/>
   <path class="fil13" d="M8178.31 13463.08c91.26,-6.72 90.27,90.27 -2.1,79.93l2.1 -79.93zm-79.76 -11.52c34.77,30.09 14.15,-14.36 29.8,29.9l0.01 118c-17.87,50.12 -2.77,-7.51 -25.78,32.39l96.99 -3.59c-14.12,-23.68 -34.16,6.99 -19.74,-68.06 80.9,9.89 2.59,102.53 134.64,71.34l-9.71 -6.77c-1.12,-0.86 -3.48,-2.47 -4.69,-3.44l-8.85 -7.32c-13.34,-13.32 -3.22,-2.37 -14.11,-18.94 -14.69,-22.36 -14.3,-22.41 -33.73,-42.03 47.04,-18.44 83.53,-67.68 19.85,-96.42 -33.91,-15.31 -129.19,-13.22 -164.68,-5.06z"/>
   <path class="fil3" d="M9374.54 12787.75c23.89,-13.54 33.7,-53.37 46.7,-79.45 10.33,-20.7 32.42,-57.03 29.51,-73.3 -48.49,13.6 -116.81,-2.46 -169.69,0.78l-19.71 115.17 113.19 36.8z"/>
   <path class="fil13" d="M9554.83 13646.3c34.87,30.01 14.2,-14.29 29.79,29.9l0 117.99c-19.13,54.12 -10.28,-3.14 -29.85,33.45l102.18 -3.22c-17.71,-29.21 -20.04,19.71 -24.63,-38.28 -2.44,-30.96 4.21,-30.13 24.93,-46.43 69.87,59.46 33.42,82.97 30.71,88.44l108.49 0.26c-13.62,-22.46 -46.86,-16.62 -97.86,-123.15 40,-41.58 33.4,-35.97 83.8,-55.56 -25.46,-12.53 -39.15,-8.28 -70.68,-6.56 -9.39,27.63 3.35,-12.21 2.66,26.7l-80.49 64.33c-2.78,-107.41 4.87,-58.49 23.09,-91.47l-102.14 3.6z"/>
   <path class="fil15" d="M10260.52 13692.86c15.93,89.21 172.46,85.16 154.58,-32.82 -14.6,-96.36 -173.36,-72.28 -154.58,32.82z"/>
   <path class="fil15" d="M7568.59 13709.79c15.01,95.32 169.38,76.66 154.59,-33.53 -12.49,-93.13 -171.86,-76.06 -154.59,33.53z"/>
   <path class="fil15" d="M7916.43 14113.91c11.51,90.37 162.18,99.97 155.36,-14.48 -6.29,-105.66 -168.5,-88.7 -155.36,14.48z"/>
   <path class="fil15" d="M7441.49 12572.29c-118.02,31.9 -58.72,172.14 30.75,152.17 102.25,-22.83 64.78,-177.99 -30.75,-152.17z"/>
   <path class="fil15" d="M9914.23 14099.26c8.07,97.64 164.83,98.99 155.67,-16.8 -8.33,-105.33 -163.37,-76.3 -155.67,16.8z"/>
   <path class="fil15" d="M8916.33 14463.33c0.34,100.39 159.28,101.63 159.05,0.16 -0.26,-109.97 -159.38,-94.3 -159.05,-0.16z"/>
   <path class="fil15" d="M9448.73 14370.2c7.63,94.85 159.37,100.89 155.64,-8.37 -3.91,-114.42 -163.16,-85.14 -155.64,8.37z"/>
   <path class="fil15" d="M10318.31 12047.15c-115.29,23.56 -65.41,172.31 25.58,153.84 96.33,-19.56 75.58,-174.51 -25.58,-153.84z"/>
   <path class="fil15" d="M9490.42 11370.49c-107.47,33.52 -53.1,172.4 38.15,149.7 100.55,-25.02 62.72,-181.17 -38.15,-149.7z"/>
   <path class="fil15" d="M10496.5 12554.99c-99.15,30.2 -62.64,174.87 43.27,147.31 90.58,-23.58 62.92,-179.65 -43.27,-147.31z"/>
   <path class="fil15" d="M8943.92 11286.23c-94.94,44.07 -21.78,184.17 71.64,136.48 81.56,-41.64 31.92,-184.55 -71.64,-136.48z"/>
   <path class="fil15" d="M7963.81 11649.13c-106.43,35.59 -60.56,168.43 31.63,150.17 113.23,-22.43 59.09,-180.5 -31.63,-150.17z"/>
   <path class="fil15" d="M8538.08 14395.6c37.12,-88.1 -111.52,-147.14 -144.48,-55.73 -33.15,91.93 98.15,165.68 144.48,55.73z"/>
   <path class="fil15" d="M7625.5 12063.93c-114.52,25.67 -66.39,169.75 24.95,152.46 102.02,-19.31 69.14,-173.55 -24.95,-152.46z"/>
   <path class="fil15" d="M8422.59 11378.66c-97.15,32.33 -45.61,182.08 57.02,143.22 82.86,-31.37 46.63,-177.72 -57.02,-143.22z"/>
   <path class="fil15" d="M9951.07 11641.39c-104.83,55.55 -25.29,176.48 58.97,141.02 103.75,-43.67 21.7,-183.76 -58.97,-141.02z"/>
   <path class="fil16" d="M8875.18 12901.16l5.99 -66.46c-20.57,-8.88 -19.06,-8.35 -40.5,-13.54 -2.87,-0.7 -18.11,-3.86 -20.16,-4.56l-25.71 -13.18c232.66,-224.5 -130.38,-210.93 -121.37,-96.67 30.17,-22.16 36.75,-45.6 82.01,-48.06 43.42,-2.35 70.09,25.18 68.91,68.86 -2.65,98 -104.13,70.31 -125.22,142.08 101.27,-15.99 94.51,-23.52 176.05,31.53z"/>
   <path class="fil15" d="M7439.76 13113.78c-118.62,42.44 -37.36,172.47 38.02,149.88 108.18,-32.41 47.55,-180.49 -38.02,-149.88z"/>
   <path class="fil15" d="M10495.41 13095.85c-101.01,31.82 -44.7,178.29 50.32,145.12 97.58,-34.06 44.1,-174.85 -50.32,-145.12z"/>
   <path class="fil14" d="M9391.16 13657.15c81.23,-37.62 118.33,130.43 43.78,157.34 -84.51,30.51 -123.36,-120.48 -43.78,-157.34zm-90.85 86.51c5.74,121.69 232.78,121.11 224.17,-16.05 -7.87,-125.19 -230.54,-119.21 -224.17,16.05z"/>
   <path class="fil3" d="M9391.16 13657.15c-79.58,36.86 -40.73,187.85 43.78,157.34 74.55,-26.91 37.45,-194.96 -43.78,-157.34z"/>
   <path class="fil11" d="M9223.84 13739.02c-34.16,10.04 -27.93,11.41 -63.38,7.21l-2.1 -88.17c67.02,-5.55 82.18,19.71 65.48,80.96zm-143.12 -92.69c34.75,30.04 14.1,-14.5 29.8,29.87l0 117.99c-19.16,54.14 -10.3,-3.05 -29.87,33.41l102.15 -3.2c-17.39,-28.59 -25.28,10.21 -24.27,-55.64 36.31,-14.93 171.9,-15.83 111.22,-98.8 -27.49,-37.58 -148.17,-33.03 -189.03,-23.63z"/>
   <path class="fil4" d="M8757.92 14236.87c41.6,33.47 526,32.98 570.26,0.98 -183.76,-24.49 -385.33,-14.54 -570.26,-0.98z"/>
   <path class="fil11" d="M7844.14 13662.2c51.37,-31.83 62.29,8.7 87.98,34.37 14.06,-88.77 -129.87,-69.76 -134.9,-11.27 -6.41,74.51 103.95,54.8 98.34,121.24 -56.66,35.84 -73.54,-21.38 -101.27,-31.78l-0.77 49.81c36.92,-8.78 -1.49,-17.97 23.05,-11.73 0.01,0 86.96,46.78 121.98,-4.69 33.62,-103.53 -102.1,-69.78 -94.41,-145.95z"/>
   <path class="fil11" d="M8619.15 13449.45c12.69,31.71 -9.55,69.26 -22.63,102.07 -46.49,116.65 -37.2,43.13 -57.78,81.06l68.33 -2.94c-16.28,-28.17 -31.75,5.01 -3.61,-62.62 11.37,-27.32 16.34,-49.01 34.14,-69.35l32.1 76.39c-31.33,13.89 -21.2,-4.78 -53.04,17.26l65.72 4.68c7.36,42.88 6.38,2.33 -12.61,37.49l101.55 -1.61c-23.49,-40.81 -6.01,36.68 -61.67,-88.37 -14.57,-32.71 -26.97,-69.61 -47.7,-96.36l-42.8 2.3z"/>
   <path class="fil17" d="M9478.64 13035.58c32.1,68.7 107.64,89.04 178.32,119.71 74.46,32.31 132.86,87.62 213.53,59.5l-391.85 -179.21z"/>
   <path class="fil11" d="M8418.86 13649.46l31.99 16.58c-2.43,74.56 -12.35,161.13 83.99,165.18 105.21,4.43 88.73,-86.97 87.36,-164.02 29.67,-26.51 14.1,5.09 31.01,-25.11l-67.07 1.66c20.47,36.29 8.68,-12.2 23.25,32.26 0,46.43 13.72,142.82 -57.72,141.94 -68.44,-0.83 -52.75,-106.19 -56.15,-154.31l27.09 -20.92 -103.75 6.74z"/>
   <path class="fil11" d="M9907.68 13813.25c-13.11,-24.14 -10.06,-43.26 -5.46,-77.4l55.35 -4.12 -54.41 -13.17 2.34 -62c98.99,-1.52 63.86,-2.54 87.2,31.6l1.47 -46.54 -168.47 4.23c19.77,33.33 10.77,-23.6 29.89,30.35l0 117.99c-19.12,54.01 -10.13,-2.93 -29.87,33.69l171.43 -3.13 -6.86 -46.82c-21,36.07 17.9,38 -82.61,35.32z"/>
   <path class="fil11" d="M8425.91 13618.6c-12.93,-24.09 -9.95,-43.4 -5.37,-77.45l55.39 -4.15 -54.42 -13.17 2.36 -60.46c72.55,-7.81 58.74,-11.72 87.16,30.1l1.51 -46.57 -168.54 4.18c19.9,33.15 10.86,-23.47 29.92,30.38l0 118c-19.05,53.79 -9.98,-2.76 -29.91,33.7l171.45 -3.18 -6.85 -46.81c-20.99,36.11 18.06,37.93 -82.7,35.43z"/>
   <path class="fil11" d="M9839.85 13618.6c-12.92,-24.19 -9.96,-43.4 -5.37,-77.48l55.36 -4.12 -54.43 -13.16 2.4 -60.49c72.63,-7.81 58.69,-11.66 87.19,30.11l1.44 -46.58 -168.46 4.25c19.84,33.03 10.89,-23.41 29.86,30.33l0.02 118c-19.07,53.86 -10.05,-2.76 -29.89,33.69l171.41 -3.18 -6.86 -46.81c-20.89,36.05 18.06,37.9 -82.67,35.44z"/>
   <path class="fil13" d="M9109.7 13494.34c14.79,-41.73 -3.41,-38.02 61.01,-30.95l1.95 145.27 -31.34 18.73 109.27 5.36c-21.22,-39.01 -32.88,55.85 -29.33,-169.35 57.15,-6.82 43.7,-6.07 66.82,29.99l3.3 -44.65 -190.97 -1.55c0.08,27.79 -5.6,28.26 9.29,47.15z"/>
   <path class="fil14" d="M8155.24 13804.17c-65.43,12.44 -136.59,25.12 -126.41,-84.66 3.19,-34.41 24.3,-62.92 58.61,-66.95 49.31,-5.8 45.1,24.58 68.6,48.03l-3.77 -47.44c-79.41,-29.94 -178.11,-11.47 -172.37,90.7 5.31,94.69 138.79,114.58 175.34,60.32z"/>
   <path class="fil13" d="M8881.12 13617.54c-7.18,-66.04 -13,-132.4 19.61,-170.16l-99.51 3.87c19.68,33.12 10.81,-23.72 29.86,30.21l0 118c-19.06,53.94 -10.18,-2.93 -29.88,33.44l176.89 -0.7 -3.28 -48.78c-28.06,36.62 27.22,37.6 -93.69,34.12z"/>
   <path class="fil11" d="M9339.12 13481.46c0,212.33 -7.88,111.25 -29.88,148.19l92.15 -9.87c-23,-18.19 -14.85,-57.69 -14.58,-113.19l0.26 -34.32 31.35 -18.76 -109.18 -5.33c19.8,36.01 10.83,-20.46 29.88,33.28z"/>
   <path class="fil2" d="M9738.38 12841.86c36.19,-26.96 -6.32,-49.4 58.69,-122.09 25.12,-28.09 75.7,-66 49.94,-108.06 -38.84,6.28 -19.64,12.6 -40.92,49.49 -23.02,39.92 -129.1,128.64 -67.71,180.66z"/>
   <path class="fil2" d="M9847.16 12895.43c51.07,-12.29 -5.99,-52.35 59.8,-116.24 16.33,-15.86 25.2,-18.72 41.16,-43.33 5.27,-8.12 13.13,-20.97 15.34,-28.88 8.56,-30.74 -1.43,-32.89 -6.31,-40.02l-79.18 99.97c-27.09,37.24 -58.73,82.22 -30.81,128.5z"/>
   <path class="fil2" d="M9796.69 12870.7c24.98,-20.95 7.81,-67.4 51.19,-116.96 11.06,-12.64 48.82,-49.15 56.57,-72.3 14.8,-44.18 0,-32.91 -5.99,-40.96 -33.39,21.26 -4.98,18.44 -35.03,52.78 -13.39,15.3 -89.27,78.76 -85.06,144.45 1.9,29.59 13.73,29.48 18.32,32.99z"/>
   <path class="fil2" d="M8872.56 13016.66l0.33 -28.3c-63.43,60.14 -77.55,45.43 -160.83,50.03l-22.14 41.06c95.8,16.84 117.93,-29.06 182.64,-62.79z"/>
   <path class="fil3" d="M9223.84 13739.02c16.7,-61.25 1.54,-86.51 -65.48,-80.96l2.1 88.17c35.45,4.2 29.22,2.83 63.38,-7.21z"/>
   <path class="fil18" d="M8994.26 12429.43l72.13 17.46 11.67 63.52c9.5,-34.43 14.04,-40.22 4.56,-77.71l-63.39 -26.4 4.88 -49.76c39.96,-1.98 55.96,9.54 85.45,-12.17 -18.76,-9.24 -72.24,-15.71 -93.24,1.59 -17.62,14.51 -20.1,61.39 -22.06,83.47z"/>
   <polygon class="fil11" points="9191.65,13049.47 9256.64,13052.23 9277.27,13018.82 9186.08,12996.8 9138.66,13036.89 "/>
   <path class="fil3" d="M10100.25 13737.78c91.77,10.51 90.04,-87.37 -2.03,-79.69l2.03 79.69z"/>
   <path class="fil3" d="M8176.21 13543.01c92.37,10.34 93.36,-86.65 2.1,-79.93l-2.1 79.93z"/>
   <path class="fil3" d="M8260.87 13737.78c92.35,10.28 93.28,-86.77 2.11,-79.94l-2.11 79.94z"/>
   <path class="fil19" d="M7867.14 12817.69c21.55,-4.05 19.54,-6.07 37.12,-26.78l-26.88 6.07 -61.43 -107.33c-17.68,18.67 -19.73,28.61 -25.63,53.56l18.09 -24.64 58.73 99.12z"/>
   <path class="fil20" d="M8467.54 12441.81l-47.44 31.28c32.35,14.89 26.02,-1.78 56.31,8.46 32.71,11.06 20.97,27.45 30.4,51.82 11.84,-35.93 10.88,-29.64 0.98,-66.96l-40.25 -24.6z"/>
   <path class="fil20" d="M8467.54 12441.81c59.22,-48.93 -11.98,-104.53 -57.55,-39.48 22.66,-16.57 23.83,-14.81 50.46,-7.08l7.09 46.56z"/>
   <path class="fil21" d="M10007.88 13034.49c20.38,13.76 32.72,26.13 9.36,48.92 -22.07,21.54 -18.59,13.54 -41.01,42 31.64,-4.71 61.51,-39.8 83.56,-69.55l-51.91 -21.37z"/>
   <path class="fil19" d="M8971.21 12535.95c38.48,7.84 58.56,9.07 89.14,-16.95 -40.5,5.87 -83.99,-13.62 -89.14,16.95z"/>
   <path class="fil21" d="M9944.25 13096.15c24.96,-1.92 37.78,-15.77 46.46,-35.75 -35.64,-7.2 -25.5,-6.2 -46.46,35.75z"/>
   <path class="fil22" d="M9907.68 13813.25l1.06 -70.36c32.2,-3.74 24.9,4.13 48.83,-11.16l-55.35 4.12c-4.6,34.14 -7.65,53.26 5.46,77.4z"/>
   <path class="fil22" d="M9839.85 13618.6l1.2 -70.39c32.21,-3.86 24.83,4.09 48.79,-11.21l-55.36 4.12c-4.59,34.08 -7.55,53.29 5.37,77.48z"/>
   <path class="fil22" d="M8425.91 13618.6l0.26 -70.39c33.15,-3.8 25.82,4.1 49.76,-11.21l-55.39 4.15c-4.58,34.05 -7.56,53.36 5.37,77.45z"/>
   <path class="fil23" d="M7867.14 12817.69c-28,2.86 -11.4,-9.94 -25.89,12.25l2.68 12.95c45.56,-14.38 15.35,-2.67 23.21,-25.2z"/>
  </g>
 </g>
</svg>
